<?xml version="1.0" encoding="windows-1252"?>
<!-- Uploaded to: SVG Repo, www.svgrepo.com, Generator: SVG Repo Mixer Tools -->
<svg fill="#000000" height="800px" width="800px" version="1.1" id="Layer_1" xmlns="http://www.w3.org/2000/svg" xmlns:xlink="http://www.w3.org/1999/xlink" viewBox="0 0 295.23 295.23" xml:space="preserve">
<g id="XMLID_311_">
	<path id="XMLID_312_" d="M110.393,295.205c44.451,0,90.879-20.934,127.378-57.434c30.612-30.611,50.479-68.535,55.944-106.785   c2.326-16.281,1.953-31.842-0.98-46.235c-0.324-3.182-0.921-6.448-1.795-9.771c-4.005-15.217-13.47-30.856-26.651-44.039   c-16.38-16.378-36.276-26.753-54.253-28.503c-8.033-1.598-16.451-2.413-25.196-2.413c-44.451,0-90.88,20.934-127.379,57.434   C26.848,88.07,6.981,125.994,1.516,164.244c-5.692,39.846,4.758,75.376,29.427,100.043   C51.171,284.513,78.643,295.205,110.393,295.205z M197.113,34.478c1.905-1.906,5.185-2.306,7.6-2.306   c0.347,0,0.709,0.03,1.063,0.045c14.646,3.223,27.318,9.957,37.3,19.938c10.01,10.01,16.743,22.751,19.959,37.357   c0.179,3.919-0.62,6.943-2.281,8.604c-1.905,1.905-5.185,2.305-7.599,2.305c-11.166,0-26.225-7.844-38.363-19.982   C195.663,61.311,191.483,40.108,197.113,34.478z"/>
</g>
</svg>